<?xml version="1.0" encoding="UTF-8"?>
<svg id="Layer_1" data-name="Layer 1" xmlns="http://www.w3.org/2000/svg" viewBox="0 0 360 360">
  <defs>
    <style>
      .cls-1 {
        fill: #25cebe;
      }
    </style>
  </defs>
  <path class="cls-1" d="M120.19,64.12c34.44-2.28,70.96,1.44,105.61-.15,36.36,1.97,63.9,30.14,65.83,66.33,1.9,35.59-1.04,73.18-.46,108.91-3.79,33.75-31.77,58.95-65.4,60.84-35.67,2.01-73.54-1.12-109.36-.46-33.46-3.73-59.28-31.83-60.86-65.37,1.44-34.36-1.85-70.21,0-104.4,1.92-35.4,29.2-63.35,64.64-65.7ZM118.83,85.54c-21.94,2.42-40.47,21.19-41.86,43.36-2.18,34.87,1.68,72.01.03,107.11,2.34,22.4,20.23,40.2,42.61,42.61h107.54c22.69-2.09,40.98-20.38,43.07-43.06v-107.54c-2.39-22.27-19.94-40.02-42.21-42.56l-109.18.08Z"/>
  <path class="cls-1" d="M168.95,121.54c47.96-3.75,80.84,47.72,57.59,89.95-22.54,40.94-82.19,41.36-105.43.91-22.26-38.74,3.57-87.39,47.84-90.86ZM168.5,142.96c-14.41,1.46-28.08,13.17-32.39,26.85-11.77,37.33,32.43,67.49,62.32,42.73,30.44-25.23,9.79-73.61-29.93-69.58Z"/>
  <path class="cls-1" d="M234.1,105.11c17.91-2.83,22.94,22.79,6.49,27.45-19.33,5.47-25.15-24.5-6.49-27.45Z"/>
</svg>