<?xml version="1.0" encoding="UTF-8"?>
<svg id="Layer_1" data-name="Layer 1" xmlns="http://www.w3.org/2000/svg" viewBox="0 0 360 360">
  <defs>
    <style>
      .cls-1 {
        fill: #25cebe;
      }
    </style>
  </defs>
  <path class="cls-1" d="M137.6,73.77c39.74-.87,81.24-.94,120.84,1.15,35.17,1.86,65.4.89,72.74,42.01,6.37,35.68,6.41,95.17-.12,130.77-8.17,44.55-45.74,39.73-82.32,41.42-45.64,2.11-91.99,2.11-137.63,0-37-1.71-74.39,3.12-82.45-41.99-5.93-33.21-5.56-78.79-2.25-112.42,3.43-34.95,8.69-52.76,46.76-57.61,20.39-2.6,43.75-2.88,64.43-3.34ZM148.81,135.75v92.58l80.22-46.63-80.22-45.95Z"/>
</svg>