<?xml version="1.0" encoding="UTF-8"?>
<svg id="Layer_1" xmlns="http://www.w3.org/2000/svg" version="1.1" viewBox="0 0 360 360">
  <!-- Generator: Adobe Illustrator 29.2.1, SVG Export Plug-In . SVG Version: 2.1.0 Build 116)  -->
  <defs>
    <style>
      .st0 {
        fill: #fff;
      }
    </style>
  </defs>
  <path class="st0" d="M239.1,163.9c-.1.1-.5,0-.4.2,1.7,1.2,1.8,4.3.9,6-.2.4-.8.7-.8.9,0,.6.4,1.9.4,2.6,0,1.6,0,3.2,0,4.8l-10.9,19.4c5.1,3.2,9.5,7.4,10.7,13.6.5,2.8,0,4.9.3,7.4,0,.9.5,1.6.6,2.4.5,3.5.2,6.9.3,10.4.3,10.1.6,20.3.9,30.5,0,.8.2,3.5-.2,4-.6.7-4.8,3.3-5.8,3.9-3.4,2.1-6.9,4-10.4,5.7l-.5-26.7c-.4-25.8-1.1-51.5-1.6-77.3-.1-.6-.8-.7-1.2-1.2-1.1-1.3-.8-4.4-.2-5.9-.3,0-.5,0-.7-.1-.8-.8-2-3.8-2.8-4.9l8.3,3.8v-.3c.1,0-16.2-30.9-16.2-30.9-.5-9.3,3.3-18.5,9.1-25.7.9-1,2.8-3.4,3.8-4.1.2-.2.2-.4.5,0,2.1,3.9,3.9,8.2,6.1,12.1,6.5,11.8,16.3,17.8,15.3,33.2-.2,3.7-3,13.2-5.2,16.1h0Z"/>
  <path class="st0" d="M117.2,81.9c.2-.5,6.5-3.9,7.4-4.4,21.4-11,46.3-14.7,70.1-10.6l-77.5,77.3s0-62.3,0-62.3Z"/>
  <path class="st0" d="M142.8,233.1h-62.1c-2.5-3.1-4.5-7.3-6.2-11-9.4-20.7-11.7-42.1-8.6-64.5,0-.4,0-.6.3-.8l76.5,76.3h0Z"/>
  <path class="st0" d="M110.7,191.9l-.7-.4-41.8-42c-.4-1.2.4-3,.7-4.2,6.4-23.5,22-45.2,41.8-59.1v105.7Z"/>
  <path class="st0" d="M171.2,239.4l.3,21.2-22,22-1.5.7c-23.8-6-45.3-20-60.2-39.4-1.1-1.4-2.4-2.9-3-4.5h86.4Z"/>
  <path class="st0" d="M265.3,111.6h-33.2l-8.1-15.6c-5.4,4.3-10,9.6-13.5,15.6h-51.1l.9-1.3,41.7-41.4c1.1-.4,3.8.6,5.1,1,23.4,6.9,44.3,21.8,58.3,41.7h0Z"/>
  <path class="st0" d="M269.3,117.9c.9.3,6,10.4,6.7,12,8.5,18.4,11.6,39.2,9.2,59.4,0,.6-.7,6-1,6l-14.9-14.9-15.8-27.4h-.5s-4.2,7-4.2,7l-2.3-2.6c.3-2.1,1.1-4.3,1.5-6.5,1.5-10.6-1.8-19-7.9-27.4-1.1-1.5-2.5-2.9-3.6-4.4-.2-.3-.6-.7-.6-1.1h33.4Z"/>
  <path class="st0" d="M192.6,285.2c.6,0,1.1-.2,1.7-.2.3,0,.9-.1.8.2-6.4.9-12.9,1.4-19.3,1.4-.1-9.7,0-19.3-.2-29-.2-11.3-.4-22.6-.5-34,0-8-.9-17.2-.2-25.1.6-7.5,4-17.3,5.9-24.8.8-3.1,1-6.5,2.4-9.5,2.3,8.7,4.9,17.5,6.9,26.3,2.7,11.7,1.6,22.4,1.8,34.3,0,8.3.4,16.8.5,25.1.1,11.8,0,23.5.2,35.3h0Z"/>
  <path class="st0" d="M252.7,161.9v26.2c-2.5,1.6-4.9,3.2-3.5,6.5s6.2,3.7,8,.5c1.7-3-.3-5.8-3.3-6.7v-26.5l20.3,34.8v.3c-5.8,3.7-9.7,10-9.8,16.9l-1.1.4c-.2.7.4,1.1.6,1.6,1.2,3.6-.7,6.3-4.5,6.3v26.6c-2.8,3.7-6.3,6.6-9.4,10l-2.4,1.9v-38.4c-3.8,0-5.4-1.7-4.9-5.5.1-1.1.9-1.5.9-2.4h-.9c-.4-5.2-2.3-10-5.9-13.8-1.3-1.4-3-2.4-4.2-3.7l20.3-34.8h0Z"/>
  <polygon class="st0" points="218.7 156.5 206.1 150.7 206.4 282.5 198.2 284.5 198 150.9 184.7 157.1 201 123 218.7 156.5"/>
  <path class="st0" d="M55.9,181c1.3-.3,2.4.1,3,1.3,3,21.9,10.1,42.8,23,60.8,17.4,24.4,45.4,41.6,74.5,48.2,2.8.6,6.5.9,9,1.7,2.7.8,2.2,4.9-1,4.8-6.4-.2-17.9-3.9-24.2-6.1-44.9-15.9-74.7-50.4-84.2-97.2-.6-3-1.6-7.2-1.7-10.2,0-1.3,0-3,1.6-3.3h0Z"/>
  <path class="st0" d="M292.4,184.5c3-.4,2.9,2.9,2.9,5-.3,10.4-3.4,22.9-7,32.6-15.1,40.3-49.3,63.9-90.1,73.7-2.1.5-8,2.1-9.8,2-2.5-.2-3.1-3.6-.8-4.7,30.8-5.8,60.7-19.4,80.4-44.4,13.8-17.6,22-40,22.5-62.4.3-.8,1.1-1.6,2-1.8h0Z"/>
  <path class="st0" d="M188.1,55.1c.7-.1,2.1.1,2.9.2,9.3.9,19.9,4,28.6,7.2,38.7,14.5,64.4,44.5,73.2,84.9.9,4.1,2.3,10.2,2.4,14.3.1,3-3.3,4.1-4.7,1.4-1.4-10.3-3.5-20.6-7-30.4-14.5-40.8-48.9-65.3-90.9-72.3-1.8-.3-5.4,0-6.3-1.8-.8-1.5.1-3.3,1.8-3.5h0Z"/>
  <path class="st0" d="M166.5,60.6c-.3.3-1.2.7-1.7.8-6.9,1.1-13.3,1.4-20.4,2.9-47.7,10.6-78.3,47.9-85.6,95.5-.7,1.6-3.4,1.7-4.2.2-.7-1.2.3-5.6.5-7.1,6.2-34.8,28.7-67.6,60.5-83.6,13.3-6.6,32.9-12.3,47.8-12.8,1.2,0,2.5-.2,3.2.9.6.9.6,2.3-.2,3.2h0Z"/>
  <path class="st0" d="M219.6,221.9l.9,55.2c.3.3,1.6-.9,1.9-.2-4.5,1.7-8.8,3.8-13.5,4.9.3-.6,1.5-.2,1.4-1.3v-49.4l.2-.5c2.9-2.3,5.5-6.2,8.4-8.4.2-.2.3-.4.7-.4h0Z"/>
  <path class="st0" d="M122.5,26l9.3,21c-.8.4-4.8,2.5-5.3,2.2l-4.9-10.7c0,2.1,0,4.3-.2,6.4,0,.7-.2,2.8-.6,3.1-.2.1-2.5,1.1-2.7,1.1l-7.2-5.7,4.6,10.8-5,2.5-9.7-21.4,5.4-2.1,9.9,7.9,1-12.9.2-.3c.9-.1,4.5-2.3,5.1-2h0Z"/>
  <path class="st0" d="M263.2,225.5c2.6-1.3,4.5-3.5,4.9-6.6s0-5.7.8-8.8c1.3-4.9,5.3-8.9,9.6-11.4.4,0,4.2,3.7,4.3,4.6-3.7,14.7-10.5,28.4-19.5,40.5-.6.2,0-.4,0-.5v-17.9Z"/>
  <path class="st0" d="M278.1,290.1l8.1,9.2-4.3,3.8-15.5-17.3c.8-.6,2.8-2.9,3.6-2.9l16,2.8-8.4-9.5c0-.5,3.4-3.4,4.1-3.8l15.5,17.3-3.6,2.9-15.5-2.5h0Z"/>
  <path class="st0" d="M319.5,105.8c1.7,5.4,5.6,10.2,3.9,16.1s-9.7,9.5-15.4,7.6c-6.3-2-7.5-9.4-10.1-14.6l21.6-9.2h0ZM316.9,113.3l-11.8,4.7c.8,5.1,4.5,8,9.6,5.5,4.8-2.3,4.4-6.1,2.2-10.2Z"/>
  <path class="st0" d="M46.1,232.7l.4.2c3.2,6.2,8.8,11.9,4.1,19-2.5,3.9-8.3,6.6-12.9,5.6-6.3-1.4-8.6-8.3-11.6-13.3l19.9-11.5h0ZM44.8,240.1l-11.1,6.3c-.3.4.8,2.1,1.1,2.6,2.8,4.2,7.9,3.7,10.9,0,2.6-3.1.6-6-.9-8.9Z"/>
  <path class="st0" d="M235.2,314.1h-.3c-2.7-3.4-8.6-2.1-9.4,2.3-1.4,8.2,8.9,12.6,11.8,4.1-.4-.5-.3-.3-.6-.2-1.2.4-2.4.9-3.5,1.4l-1.7-4.4,8.9-3.3,4.3,11.9-4.8,1.6-.4-1.1c-8.5,10.2-23.3-.4-19.2-12.2,2.4-6.9,12-10.3,17.4-4.7l-2.5,4.5h0Z"/>
  <path class="st0" d="M78.3,288.5l7,5.9-3.1,3.6-6.8-5.8c-.3-.1-.4,0-.7.2-.2.1-2,2.4-2.1,2.6,0,.3-.2.4.1.6l7.9,6.7c-.5.6-3,3.9-3.5,3.8l-12.2-10.6.2-.7,14.8-17,12.4,10.5-3.4,3.8-8.1-6.7-2.4,3h0Z"/>
  <path class="st0" d="M248.5,44.3l7.9,4.6-2.4,4.1-7.9-4.4c-.4.7-2.2,3.2-1.9,3.7.1.2.7.5,1,.7,2.4,1.6,5.6,3,8.2,4.5l-2.7,4.6-14.3-8.2,11.5-20.1,14.1,8-2.5,4.3-9.1-4.9c-.5,0-2.1,3.1-2,3.2h0Z"/>
  <path class="st0" d="M317.2,235.9c-2.1,0-5.8,3.7-5.8,5.7,0,.9,1,1.6,1.9,1.5,1-.2,3.4-3.2,4.4-4,3.2-2.8,6.4-4.1,10.1-1,5.3,4.4.4,12.6-4,15.8-.7.5-2.8,2-3.5,1.4-.9-.8-2-3.4-2.9-4.4,2.6-.6,5.9-3.3,6.9-5.8,1-2.8-.9-3.1-2.9-1.5-3.7,2.9-6.6,8.6-12.3,4.4-6.5-4.7-.9-14.6,5.2-16.8.4.6,3.2,4.6,2.9,4.9h0Z"/>
  <path class="st0" d="M133.5,318.3c-.5-2.2-4.9-5.4-7-4.5-.9.4-.9,1.7-.3,2.4.8,1.1,4.3,3,5.6,4.2,2.6,2.4,3.3,5.1,1.6,8.4-3.8,7.4-15.6,1.8-18.7-3.7l.2-.5c1.4-.7,2.3-2.5,3.5-3.3.2-.1.2-.3.6-.2.5,2.6,5.9,6.7,8.4,5.7,1.7-.7,0-2.4-.8-3.1-3.6-3.2-9.2-5.1-6.2-11.3,3.5-7.2,14.3-3.2,17.5,2.4,0,.2-3.2,3.1-3.6,3.4-.3.2-.5.3-.8.2h0Z"/>
  <path class="st0" d="M66.1,61.4l22.7,10.3-4.1,4-5.2-2.2c-.3,0-.4,0-.7.2-.3.2-4.1,3.9-4.2,4.2l2.2,5.4-4,4.1-10.1-22.5,3.4-3.5h0ZM75,70.9l-5.1-2.3,2.3,5.3c.4-.3,3.1-2.7,2.8-3Z"/>
  <path class="st0" d="M42.7,99.8l.9,5.3c-1.6.4-2.7,0-4.1,1.3-5.4,4.7,1.6,12.4,7.7,10.1,3.6-1.4,4.6-6,1.8-8.7l4.5-3.1c4.6,5.2,2.2,13.8-3.8,16.6-9.4,4.4-20.2-4-16.8-14.2,1.4-4.2,5.2-7.3,9.8-7.3h0Z"/>
  <path class="st0" d="M174.9,21.8l-10.5.7c.4.8,0,3.9.6,4.2l8.2-.6.4,4.6-.6.4-8,.5.5,9.1-5.6.2-1.7-23.2,15.9-.9c.3,0,.3.3.4.5.2,1.2,0,3.2.2,4.5h0Z"/>
  <path class="st0" d="M289.9,64.2s.2.5.4.7c1.1,1.1,2.1,2.2,3.1,3.4l-13.5,12.1,7.4,8.4-3.8,3.3-11.3-12.4,16.9-15.3c.2-.2.5-.3.8-.2h0Z"/>
  <polygon class="st0" points="171.9 286.9 156.1 285.5 171.6 269.6 171.9 286.9"/>
  <path class="st0" d="M175.4,340.6l-.5-23.1c1.9-.6,3.9-.3,5.8-.4l.2,23.1c0,.1-.8.4-.8.4h-4.8Z"/>
  <polygon class="st0" points="214 21.3 209.1 44.1 203.6 43 208.4 20.1 214 21.3"/>
  <path class="st0" d="M290.6,170.1c1.2-.2,5-.2,6.2,0,1,.1,1.4.5,1.5,1.5s.1,5.9-.1,6.6c-.2.7-.8.9-1.4.9-1,.1-5.9.1-6.6-.1-.7-.2-.9-.8-.9-1.4-.1-1.2-.2-5.1,0-6.3.1-.8.5-1.1,1.3-1.2h0Z"/>
  <path class="st0" d="M52.2,166.6c1.1-.2,5.5-.2,6.7,0,.4,0,1,.1,1.2.5s.2,6.8.1,7.6-.5.9-1.3,1c-1,.1-6.1.1-6.9-.1-.2,0-.5-.2-.6-.4-.2-.3-.2-7.1-.1-7.8,0-.5.4-.7.9-.8h0Z"/>
  <path class="st0" d="M173.5,290.9c1-.2,5.1-.2,6.2,0,.9.1,1.4.4,1.5,1.3.2,1.2.2,5.3,0,6.5-.1.9-.7,1.2-1.5,1.3-1,.1-5.6.1-6.4-.1-.6-.2-.9-.6-.9-1.2-.1-1-.2-5.8,0-6.8.1-.5.6-.9,1.1-1h0Z"/>
  <path class="st0" d="M180.4,52.8c.7.7.7,5.7.5,6.8-.1,1.3-.5,1.6-1.7,1.8-1.4.1-4.7.2-6.1,0-.6,0-1-.3-1.2-.9-.2-.8-.2-5.4-.1-6.4,0-.4.2-1,.6-1.3.5-.4,7.5-.4,8,0h0Z"/>
  <path class="st0" d="M19.6,167.2c0,.7.3,1.6-.4,2.1h-5.5v2.8h4.9v1.9h-4.9v3h5.8v2.1h-8.1v-11.9h8.1Z"/>
  <path class="st0" d="M22.4,177.9l.7-2.1c1.2.3,2.1,1,3.4,1.2,1.1.1,3.4.1,2.6-1.6-.6-1.4-5.7-1.1-6.1-3.6-.9-5,5.2-5.6,8.3-3.4l-.9,1.8c-1-.9-5.1-2-5,.1,0,2.3,5.7,1.1,6.4,4.5,1.1,5.1-6.2,4.9-9.2,3h0Z"/>
  <path class="st0" d="M346.3,176.8h1.4v2.1h-1.4l-.2,2.5h-2.1c0,.1,0-2.5,0-2.5h-4.9v-2.3c2-1.7,3.5-4.9,5.2-6.5.6-.6,1.4-.7,2-.1v6.9h0ZM344.2,176.8v-3.5l-2.8,3.5h2.8Z"/>
  <path class="st0" d="M320.1,169.4c7.2-1.5,7.3,10.9.4,9.9-4.8-.7-4.5-9.1-.4-9.9h0ZM321.3,171.3c-2.6,0-2.9,6.2.2,6,2.6-.2,2.4-6.1-.2-6Z"/>
  <path class="st0" d="M308.6,177.2h4.9v1.9h-8.1c.2-2.1.6-2.9,2.4-4.1.9-.6,4.5-1.8,2.8-3.3-1.4-1.2-3.2.9-3.6.8l-1.3-1.5c2.1-2.3,8.3-2.4,7.6,1.9-.3,1.8-3,2.6-4.2,3.7-.2.2-.5.2-.4.7Z"/>
  <path class="st0" d="M44.3,167.2c0,.7.3,1.6-.3,2.1h-3.6v9.8h-2.3v-9.8h-3.7v-2.1h10Z"/>
  <path class="st0" d="M334.2,169.6v7.7h2.1v1.9h-6.8v-1.9h2.3v-4.9c-.9.4-1.7,1.1-2.8.9-.3-2.2.4-2,1.9-2.8.4-.2.6-.7,1-.9.6-.2,1.5,0,2.2,0h0Z"/>
</svg>