<?xml version="1.0" encoding="UTF-8"?>
<svg id="Layer_1" xmlns="http://www.w3.org/2000/svg" version="1.1" viewBox="0 0 647.5 210.4">
  <!-- Generator: Adobe Illustrator 29.2.1, SVG Export Plug-In . SVG Version: 2.1.0 Build 116)  -->
  <defs>
    <style>
      .st0, .st1 {
        fill: #fff;
      }

      .st1 {
        font-family: DINAlternate-Bold, 'DIN Alternate';
        font-size: 91.4px;
        font-weight: 700;
        stroke: #fff;
        stroke-miterlimit: 10;
        stroke-width: 2px;
      }

      .st2 {
        letter-spacing: 0em;
      }

      .st3 {
        letter-spacing: 0em;
      }
    </style>
  </defs>
  <path class="st0" d="M155.5,95.9c0,.1-.4,0-.3.2,1.4,1,1.5,3.6.7,5-.2.3-.6.6-.7.8,0,.5.3,1.5.3,2.1,0,1.3,0,2.7,0,4l-9,16c4.2,2.6,7.9,6.1,8.8,11.3.4,2.3,0,4,.2,6.1,0,.7.4,1.4.5,2,.4,2.9.1,5.7.2,8.6.2,8.4.5,16.8.8,25.2,0,.7.1,2.9-.2,3.3-.5.6-3.9,2.7-4.8,3.3-2.8,1.8-5.7,3.3-8.7,4.7l-.4-22.1c-.4-21.3-.9-42.6-1.4-64,0-.5-.6-.6-1-1-.9-1.1-.7-3.6-.2-4.9-.2,0-.4,0-.6-.1-.7-.6-1.6-3.1-2.3-4l6.8,3.2v-.3c0,0-13.4-25.6-13.4-25.6-.4-7.7,2.7-15.3,7.6-21.2.7-.9,2.3-2.8,3.2-3.4.2-.1.2-.3.4,0,1.8,3.3,3.2,6.8,5,10,5.4,9.7,13.5,14.8,12.6,27.5-.2,3.1-2.5,10.9-4.3,13.3h0Z"/>
  <path class="st0" d="M54.6,28.1c.1-.4,5.4-3.3,6.2-3.7,17.7-9.1,38.3-12.2,58-8.8l-64.2,64s0-51.6,0-51.6Z"/>
  <path class="st0" d="M75.8,153.2H24.4c-2.1-2.6-3.8-6.1-5.1-9.1-7.8-17.1-9.7-34.8-7.1-53.4,0-.3,0-.5.3-.7l63.3,63.2h0Z"/>
  <path class="st0" d="M49.2,119.1l-.6-.3L14,84.1c-.3-1,.3-2.5.6-3.5,5.3-19.4,18.2-37.4,34.6-49v87.5Z"/>
  <path class="st0" d="M99.3,158.4l.3,17.5-18.2,18.2-1.2.6c-19.7-5-37.5-16.6-49.9-32.6-.9-1.2-2-2.4-2.5-3.8h71.5Z"/>
  <path class="st0" d="M177.2,52.6h-27.5l-6.7-12.9c-4.5,3.6-8.3,8-11.2,12.9h-42.3l.8-1.1,34.5-34.3c.9-.3,3.2.5,4.2.8,19.3,5.7,36.7,18.1,48.2,34.5h0Z"/>
  <path class="st0" d="M180.5,57.8c.8.2,4.9,8.6,5.5,9.9,7,15.2,9.6,32.5,7.7,49.2,0,.5-.6,5-.8,4.9l-12.3-12.3-13.1-22.7h-.4s-3.5,5.8-3.5,5.8l-1.9-2.1c.2-1.8.9-3.5,1.2-5.3,1.3-8.8-1.5-15.7-6.5-22.7-.9-1.2-2.1-2.4-2.9-3.6-.2-.3-.5-.6-.5-.9h27.7Z"/>
  <path class="st0" d="M117,196.4c.5,0,.9-.2,1.4-.2.2,0,.7-.1.7.2-5.3.8-10.6,1.2-16,1.2-.1-8,0-16-.2-24-.1-9.4-.3-18.7-.4-28.1,0-6.6-.7-14.3-.2-20.8.5-6.2,3.3-14.3,4.9-20.6.6-2.6.9-5.4,2-7.9,1.9,7.2,4.1,14.5,5.7,21.8,2.2,9.7,1.4,18.6,1.5,28.4,0,6.9.3,13.9.4,20.8.1,9.7,0,19.5.2,29.2h0Z"/>
  <path class="st0" d="M166.8,94.3v21.7c-2,1.3-4,2.6-2.9,5.4s5.1,3.1,6.6.4c1.4-2.5-.3-4.8-2.7-5.5v-22l16.8,28.8v.3c-4.8,3.1-8,8.2-8.1,14l-.9.3c-.2.6.3.9.5,1.3,1,3-.6,5.2-3.8,5.2v22c-2.3,3.1-5.2,5.5-7.8,8.2l-2,1.5v-31.8c-3.1,0-4.4-1.4-4-4.5.1-.9.7-1.2.8-2h-.8c-.3-4.3-1.9-8.3-4.8-11.5-1.1-1.1-2.5-2-3.5-3.1l16.8-28.8h0Z"/>
  <polygon class="st0" points="138.6 89.8 128.2 85 128.4 194.2 121.7 195.8 121.5 85.2 110.5 90.3 124 62.1 138.6 89.8"/>
  <path class="st0" d="M139.4,144l.8,45.7c.2.3,1.3-.8,1.5-.2-3.7,1.4-7.3,3.1-11.2,4,.3-.5,1.3-.2,1.2-1v-40.9l.2-.4c2.4-1.9,4.6-5.1,6.9-6.9.2-.1.2-.4.6-.3h0Z"/>
  <path class="st0" d="M175.4,147c2.2-1.1,3.8-2.9,4-5.4s0-4.7.7-7.2c1.1-4.1,4.4-7.4,7.9-9.4.3,0,3.5,3.1,3.6,3.8-3.1,12.1-8.7,23.5-16.2,33.5-.5.2,0-.4,0-.4v-14.8Z"/>
  <polygon class="st0" points="99.9 197.8 86.8 196.6 99.6 183.5 99.9 197.8"/>
  <text class="st1" transform="translate(217.1 94.3)"><tspan class="st2"><tspan x="0" y="0">CAMFIELD</tspan></tspan><tspan class="st3"><tspan x="0" y="83.7">DESIGNS</tspan></tspan></text>
</svg>