<?xml version="1.0" encoding="UTF-8"?>
<svg id="Layer_1" data-name="Layer 1" xmlns="http://www.w3.org/2000/svg" viewBox="0 0 360 360">
  <defs>
    <style>
      .cls-1 {
        fill: #25cebe;
      }
    </style>
  </defs>
  <path class="cls-1" d="M239.1,163.91c-.1.13-.46,0-.38.19,1.7,1.23,1.81,4.31.9,6.02-.19.36-.76.67-.8.95-.09.56.35,1.85.38,2.56.06,1.61,0,3.24-.06,4.84l-10.91,19.35c5.13,3.2,9.52,7.37,10.66,13.59.51,2.78.07,4.88.3,7.38.08.87.53,1.64.64,2.39.52,3.49.18,6.92.28,10.42.29,10.14.65,20.33.95,30.47.03.84.16,3.47-.25,3.96-.58.71-4.75,3.26-5.84,3.94-3.36,2.12-6.88,3.99-10.45,5.72l-.46-26.66c-.45-25.75-1.13-51.49-1.64-77.26-.11-.59-.77-.69-1.17-1.16-1.14-1.34-.84-4.37-.23-5.94-.27.02-.5.05-.71-.15-.82-.78-1.99-3.78-2.78-4.85l8.27,3.84.11-.34-16.35-30.91c-.5-9.35,3.27-18.52,9.14-25.65.85-1.04,2.82-3.4,3.84-4.08.23-.16.19-.38.46,0,2.15,3.95,3.88,8.16,6.05,12.1,6.48,11.75,16.28,17.84,15.26,33.17-.25,3.7-2.99,13.2-5.22,16.09v.02h.01Z"/>
  <path class="cls-1" d="M117.18,81.94c.15-.51,6.47-3.93,7.45-4.43,21.41-11.01,46.3-14.7,70.08-10.58l-77.53,77.27s0-62.26,0-62.26Z"/>
  <path class="cls-1" d="M142.79,233.11h-62.05c-2.53-3.13-4.53-7.31-6.21-11.01-9.39-20.67-11.72-42.05-8.58-64.52.05-.35,0-.58.35-.81l76.48,76.34h0Z"/>
  <path class="cls-1" d="M110.67,191.91l-.7-.35-41.8-42c-.37-1.16.39-3,.71-4.2,6.38-23.48,22.03-45.15,41.79-59.12v105.67Z"/>
  <path class="cls-1" d="M171.2,239.39l.34,21.18-21.99,22-1.48.74c-23.77-6-45.28-20.02-60.22-39.39-1.07-1.39-2.39-2.92-3.04-4.53h86.39Z"/>
  <path class="cls-1" d="M265.26,111.62h-33.18l-8.15-15.6c-5.44,4.29-9.99,9.62-13.5,15.6h-51.1l.93-1.29,41.67-41.43c1.14-.37,3.82.63,5.08,1,23.36,6.87,44.31,21.85,58.26,41.72h-.01Z"/>
  <path class="cls-1" d="M269.33,117.9c.94.26,5.96,10.38,6.68,11.95,8.45,18.41,11.64,39.19,9.24,59.36-.08.63-.72,5.98-1.02,5.97l-14.88-14.91-15.84-27.45-.46.02-4.2,6.97-2.34-2.57c.26-2.13,1.14-4.26,1.46-6.46,1.53-10.61-1.78-18.98-7.89-27.36-1.09-1.49-2.5-2.89-3.55-4.37-.24-.35-.63-.7-.61-1.14h33.41Z"/>
  <path class="cls-1" d="M192.62,285.24c.6-.06,1.12-.22,1.74-.24.26,0,.88-.14.82.24-6.4.91-12.85,1.39-19.32,1.4-.14-9.66-.08-19.33-.22-28.99-.16-11.32-.36-22.63-.47-33.98-.07-7.98-.87-17.22-.24-25.12.6-7.54,4.04-17.32,5.89-24.83.77-3.15,1.04-6.53,2.37-9.5,2.34,8.72,4.93,17.51,6.94,26.34,2.66,11.67,1.65,22.42,1.78,34.3.09,8.32.4,16.79.48,25.12.13,11.77-.03,23.52.22,35.27h0Z"/>
  <path class="cls-1" d="M252.69,161.89v26.18c-2.47,1.6-4.87,3.2-3.5,6.53s6.17,3.7,7.97.51c1.7-2.99-.32-5.83-3.31-6.68v-26.53l20.26,34.81-.11.33c-5.65,3.72-9.57,9.96-9.7,16.85l-1.14.38c-.21.73.41,1.1.58,1.63,1.18,3.63-.72,6.31-4.53,6.29l-.07,26.58c-2.69,3.7-6.24,6.65-9.37,9.95l-2.45,1.86v-38.4c-3.76-.02-5.36-1.69-4.89-5.47.13-1.05.87-1.46.94-2.44l-.91-.02c-.42-5.2-2.28-10-5.85-13.82-1.29-1.38-2.99-2.39-4.19-3.72l20.26-34.81h.01Z"/>
  <polygon class="cls-1" points="218.69 156.53 206.12 150.72 206.37 282.54 198.21 284.54 197.97 150.95 184.7 157.12 201 123.02 218.69 156.53"/>
  <path class="cls-1" d="M55.88,181.02c1.28-.29,2.44.11,2.98,1.34,2.98,21.85,10.13,42.85,22.97,60.82,17.41,24.36,45.39,41.56,74.5,48.18,2.79.64,6.5.92,9.04,1.66,2.68.78,2.2,4.9-1.04,4.78-6.38-.22-17.95-3.91-24.17-6.12-44.92-15.92-74.71-50.45-84.15-97.19-.6-2.97-1.58-7.22-1.71-10.16-.06-1.31,0-2.98,1.57-3.34v.03h0Z"/>
  <path class="cls-1" d="M292.44,184.51c3.01-.44,2.92,2.93,2.86,4.97-.31,10.35-3.37,22.89-6.99,32.58-15.07,40.34-49.28,63.93-90.15,73.73-2.11.51-8.03,2.13-9.82,2.01-2.49-.17-3.11-3.61-.78-4.7,30.79-5.76,60.74-19.39,80.35-44.42,13.79-17.61,21.95-39.97,22.54-62.42.3-.84,1.1-1.62,1.99-1.75h0Z"/>
  <path class="cls-1" d="M188.14,55.11c.69-.11,2.14.13,2.94.21,9.3.94,19.87,3.96,28.61,7.24,38.68,14.51,64.43,44.47,73.17,84.89.89,4.12,2.27,10.23,2.44,14.32.13,2.97-3.28,4.07-4.68,1.41-1.43-10.34-3.52-20.61-7.02-30.45-14.51-40.77-48.89-65.26-90.9-72.29-1.83-.31-5.44-.08-6.33-1.81-.76-1.48.14-3.27,1.78-3.53h-.01Z"/>
  <path class="cls-1" d="M166.46,60.57c-.34.35-1.19.68-1.69.76-6.91,1.07-13.34,1.37-20.36,2.93-47.73,10.62-78.31,47.92-85.63,95.48-.72,1.64-3.41,1.67-4.25.2-.68-1.2.27-5.58.55-7.15,6.22-34.85,28.7-67.63,60.54-83.55,13.29-6.64,32.9-12.27,47.77-12.76,1.21-.04,2.49-.22,3.25.94.62.94.63,2.33-.19,3.17v-.02h0Z"/>
  <path class="cls-1" d="M219.62,221.94l.93,55.16c.3.32,1.63-.93,1.86-.23-4.48,1.67-8.83,3.76-13.5,4.89.33-.63,1.54-.21,1.41-1.26v-49.35l.21-.48c2.89-2.34,5.52-6.17,8.39-8.37.23-.18.3-.45.7-.35h0Z"/>
  <path class="cls-1" d="M122.51,25.99l9.34,21.02c-.76.41-4.82,2.51-5.32,2.2l-4.92-10.68c-.08,2.08-.07,4.34-.24,6.4-.06.72-.19,2.83-.6,3.12-.18.13-2.52,1.1-2.66,1.06l-7.21-5.7,4.64,10.8-4.99,2.45-9.66-21.39,5.42-2.06,9.95,7.88.97-12.88.19-.27c.92-.15,4.51-2.32,5.1-1.95,0,0-.01,0-.01,0Z"/>
  <path class="cls-1" d="M263.16,225.54c2.61-1.34,4.53-3.52,4.86-6.55s-.03-5.68.79-8.75c1.32-4.92,5.28-8.91,9.6-11.36.37,0,4.19,3.7,4.3,4.56-3.71,14.66-10.49,28.44-19.55,40.49-.64.23,0-.44,0-.47v-17.92Z"/>
  <path class="cls-1" d="M278.06,290.13l8.14,9.2-4.27,3.82-15.51-17.32c.83-.57,2.77-2.9,3.59-2.92l15.96,2.8-8.36-9.46c-.09-.5,3.42-3.38,4.06-3.82l15.47,17.32-3.58,2.91-15.5-2.53h0Z"/>
  <path class="cls-1" d="M319.5,105.8c1.74,5.41,5.64,10.16,3.9,16.11s-9.71,9.47-15.43,7.64c-6.31-2.02-7.45-9.42-10.09-14.56l21.63-9.19h-.01ZM316.93,113.26l-11.83,4.66c.81,5.07,4.53,7.96,9.61,5.54,4.78-2.27,4.35-6.06,2.22-10.2Z"/>
  <path class="cls-1" d="M46.1,232.67l.42.21c3.21,6.22,8.77,11.85,4.13,19.02-2.53,3.91-8.32,6.59-12.92,5.59-6.32-1.37-8.65-8.34-11.57-13.3l19.93-11.52h.01ZM44.77,240.09l-11.07,6.28c-.29.45.79,2.15,1.11,2.63,2.77,4.23,7.9,3.67,10.89.04,2.59-3.15.57-5.97-.93-8.95Z"/>
  <path class="cls-1" d="M235.22,314.1h-.34c-2.71-3.35-8.64-2.08-9.38,2.27-1.4,8.23,8.92,12.65,11.82,4.14-.35-.46-.28-.27-.62-.16-1.18.38-2.35.88-3.46,1.41l-1.74-4.39,8.85-3.26,4.33,11.88-4.78,1.61-.36-1.15c-8.49,10.19-23.31-.42-19.16-12.17,2.44-6.9,12.03-10.28,17.37-4.67l-2.53,4.51v-.02h0Z"/>
  <path class="cls-1" d="M78.3,288.5l6.98,5.93-3.13,3.6-6.8-5.78c-.29-.1-.45.02-.67.19-.15.11-2.03,2.43-2.09,2.59-.09.27-.16.37.11.58l7.89,6.74c-.47.59-3,3.92-3.53,3.83l-12.23-10.62.19-.66,14.8-17.05,12.45,10.55-3.4,3.82-8.12-6.69-2.44,2.98h-.01Z"/>
  <path class="cls-1" d="M248.51,44.33l7.86,4.56-2.42,4.06-7.9-4.39c-.4.66-2.21,3.16-1.87,3.7.11.17.74.49.99.65,2.45,1.64,5.6,3.04,8.22,4.47l-2.67,4.59-14.29-8.2,11.51-20.13,14.05,8.05-2.46,4.26-9.05-4.87c-.49,0-2.08,3.06-1.96,3.24h-.01Z"/>
  <path class="cls-1" d="M317.18,235.9c-2.15-.06-5.83,3.7-5.8,5.71.01.95,1.03,1.65,1.9,1.47,1.01-.21,3.4-3.19,4.36-4.04,3.19-2.84,6.43-4.12,10.12-1.04,5.3,4.42.37,12.63-3.99,15.78-.68.49-2.76,2.04-3.45,1.44-.9-.8-1.95-3.44-2.91-4.42,2.64-.63,5.92-3.26,6.86-5.83,1.02-2.79-.92-3.09-2.91-1.51-3.67,2.92-6.62,8.55-12.32,4.41-6.51-4.73-.85-14.61,5.23-16.83.43.59,3.2,4.56,2.91,4.86h0Z"/>
  <path class="cls-1" d="M133.49,318.28c-.48-2.25-4.85-5.43-6.99-4.52-.92.39-.87,1.69-.35,2.43.75,1.07,4.3,2.97,5.59,4.19,2.56,2.41,3.29,5.14,1.63,8.39-3.76,7.41-15.58,1.8-18.66-3.72l.24-.48c1.37-.71,2.35-2.46,3.51-3.26.2-.14.23-.32.58-.23.51,2.59,5.92,6.74,8.38,5.7,1.72-.73-.04-2.43-.82-3.13-3.56-3.18-9.24-5.14-6.2-11.34,3.51-7.16,14.27-3.22,17.46,2.37,0,.25-3.19,3.15-3.56,3.38-.27.18-.47.31-.82.21h0Z"/>
  <path class="cls-1" d="M66.11,61.38l22.66,10.32-4.1,4.03-5.15-2.25c-.29-.1-.43.06-.65.19-.26.15-4.07,3.92-4.18,4.2l2.18,5.43-4.04,4.12-10.09-22.5,3.37-3.53h0ZM75.04,70.89l-5.12-2.33,2.33,5.35c.45-.35,3.05-2.67,2.79-3.02Z"/>
  <path class="cls-1" d="M42.65,99.77l.86,5.33c-1.61.38-2.69.07-4.08,1.29-5.36,4.69,1.56,12.37,7.73,10.06,3.63-1.36,4.59-5.96,1.8-8.68l4.54-3.13c4.57,5.18,2.22,13.75-3.85,16.62-9.39,4.45-20.25-4.04-16.77-14.2,1.44-4.2,5.21-7.33,9.76-7.3h.01Z"/>
  <path class="cls-1" d="M174.93,21.78l-10.48.7c.37.83-.08,3.94.62,4.17l8.24-.57.43,4.64-.55.38-8.03.46.47,9.08-5.56.21-1.66-23.25,15.92-.9c.3.08.33.28.38.55.23,1.22-.05,3.2.23,4.54h0Z"/>
  <path class="cls-1" d="M289.91,64.17s.18.48.37.67c1.07,1.11,2.1,2.24,3.15,3.37l-13.5,12.1,7.4,8.38-3.8,3.33-11.29-12.41,16.86-15.26c.2-.19.55-.33.8-.19h.01Z"/>
  <polygon class="cls-1" points="171.9 286.87 156.07 285.47 171.55 269.65 171.9 286.87"/>
  <path class="cls-1" d="M175.39,340.64l-.47-23.14c1.88-.59,3.89-.3,5.83-.37l.25,23.13c-.03.1-.77.38-.83.38h-4.78Z"/>
  <polygon class="cls-1" points="214.01 21.34 209.15 44.12 203.57 42.95 208.45 20.15 214.01 21.34"/>
  <path class="cls-1" d="M290.58,170.09c1.19-.22,4.98-.21,6.23-.06,1.03.12,1.39.49,1.51,1.51s.14,5.88-.11,6.65c-.22.67-.76.85-1.41.92-1,.12-5.89.14-6.65-.11-.67-.22-.85-.76-.92-1.41-.15-1.25-.17-5.07.02-6.27.13-.84.52-1.09,1.32-1.24h0Z"/>
  <path class="cls-1" d="M52.16,166.6c1.07-.23,5.5-.19,6.7-.06.36.04.97.14,1.16.47s.22,6.78.13,7.58-.5.95-1.29,1.04c-1.04.12-6.1.15-6.88-.11-.19-.06-.47-.19-.57-.36-.2-.34-.24-7.1-.11-7.8.09-.48.41-.66.87-.76h0Z"/>
  <path class="cls-1" d="M173.46,290.88c.99-.22,5.13-.18,6.24-.06.87.1,1.4.38,1.52,1.27.16,1.22.16,5.31,0,6.54-.12.9-.66,1.18-1.52,1.27-1.04.12-5.59.14-6.42-.11-.61-.19-.85-.56-.93-1.16-.14-1.04-.17-5.81.02-6.76.1-.53.59-.89,1.09-1h0Z"/>
  <path class="cls-1" d="M180.45,52.79c.71.67.66,5.67.53,6.81-.14,1.3-.51,1.64-1.74,1.75-1.4.12-4.74.18-6.07,0-.61-.08-.98-.32-1.16-.93-.25-.83-.23-5.38-.11-6.42.05-.44.2-1.03.57-1.29.54-.38,7.52-.36,7.99.08h0Z"/>
  <path class="cls-1" d="M19.63,167.24c-.07.7.26,1.6-.35,2.09h-5.47v2.79h4.89v1.86h-4.89v3.03h5.82v2.09h-8.15v-11.87h8.15Z"/>
  <path class="cls-1" d="M22.44,177.93l.69-2.07c1.18.26,2.09,1.02,3.36,1.16,1.1.11,3.35.1,2.56-1.63-.63-1.38-5.69-1.09-6.15-3.62-.92-5.01,5.18-5.6,8.27-3.37l-.94,1.84c-.96-.92-5.05-1.97-5.03.14.02,2.29,5.72,1.11,6.44,4.52,1.08,5.14-6.22,4.9-9.19,3.02h-.01Z"/>
  <path class="cls-1" d="M346.28,176.78h1.4v2.1h-1.4l-.22,2.46-2.11.1v-2.56h-4.89l.12-2.32c1.85-1.67,3.38-4.95,5.11-6.53.63-.57,1.38-.74,1.99-.11v6.87h0ZM344.19,176.78v-3.49l-2.79,3.49h2.79Z"/>
  <path class="cls-1" d="M320.14,169.39c7.24-1.48,7.27,10.91.43,9.93-4.75-.68-4.53-9.1-.43-9.93h0ZM321.29,171.26c-2.62.08-2.86,6.21.19,6.01,2.58-.17,2.41-6.1-.19-6.01Z"/>
  <path class="cls-1" d="M308.56,177.25h4.89v1.86h-8.15c.22-2.08.62-2.92,2.35-4.05.91-.6,4.47-1.8,2.77-3.27-1.42-1.22-3.23.85-3.57.79l-1.29-1.5c2.1-2.29,8.34-2.39,7.64,1.85-.3,1.8-3.05,2.56-4.25,3.66-.23.21-.5.2-.39.66Z"/>
  <path class="cls-1" d="M44.31,167.24c-.07.7.26,1.6-.35,2.09h-3.61v9.78h-2.33v-9.78h-3.73v-2.09s10.02,0,10.02,0Z"/>
  <path class="cls-1" d="M334.17,169.57v7.68h2.1v1.86h-6.75v-1.86h2.33v-4.89c-.9.41-1.73,1.1-2.79.93-.33-2.25.44-1.98,1.94-2.83.38-.22.65-.74,1.02-.85.63-.19,1.5.03,2.16-.05h0Z"/>
</svg>